<svg width="147" height="145" viewBox="0 0 147 145" fill="none" xmlns="http://www.w3.org/2000/svg">
<path d="M46.3755 44.0126L46.3756 5.13306L72.2038 31.9355V70.1079L46.3755 44.0126Z" fill="#F0FBFF" fill-opacity="0.5"/>
<path d="M100.137 44.196V5.31641L74.3086 32.1188V70.2913L100.137 44.196Z" fill="#F0FBFF" fill-opacity="0.5"/>
<path d="M46.6865 100.987L46.6866 139.867L72.5147 113.065V74.8916L46.6865 100.987Z" fill="#F0FBFF" fill-opacity="0.5"/>
<path d="M99.8638 100.804L99.8632 139.684L74.0356 112.881V74.7087L99.8638 100.804Z" fill="#F0FBFF" fill-opacity="0.5"/>
<path d="M43.8909 99.591H5.11865L31.8471 73.6914H69.9143L43.8909 99.591Z" fill="#F0FBFF" fill-opacity="0.5"/>
<path d="M45.2054 45.8276L6.43311 45.8278L33.1615 71.727H71.2289L45.2054 45.8276Z" fill="#F0FBFF" fill-opacity="0.5"/>
<path d="M102.717 99.7371H141.489L114.761 73.8374H76.6934L102.717 99.7371Z" fill="#F0FBFF" fill-opacity="0.5"/>
<path d="M102.826 45.5344L141.598 45.5345L114.869 71.434H76.8018L102.826 45.5344Z" fill="#F0FBFF" fill-opacity="0.5"/>
<path fill-rule="evenodd" clip-rule="evenodd" d="M130.331 80.4871V79.954C130.331 79.7446 130.314 79.5389 130.279 79.3391C129.027 78.6809 128.004 77.6448 127.359 76.3819C127.149 76.344 126.933 76.3242 126.711 76.3242H125.615C123.891 76.3242 122.493 74.9223 122.493 73.1938C122.493 71.4646 123.891 70.0633 125.615 70.0633H126.744C126.98 70.0633 127.21 70.0404 127.434 69.9965C128.077 68.8052 129.063 67.8263 130.258 67.1922C130.306 66.9575 130.331 66.7151 130.331 66.4666V65.9666C130.331 64.2561 131.714 62.8699 133.42 62.8699C135.126 62.8699 136.509 64.2561 136.509 65.9666V66.4666C136.509 66.7012 136.531 66.9311 136.574 67.1537C137.807 67.7884 138.823 68.7878 139.479 70.0104C139.68 70.0447 139.885 70.0633 140.095 70.0633H141.158C142.882 70.0633 144.28 71.4646 144.28 73.1938C144.28 74.9223 142.882 76.3242 141.158 76.3242H140.128C139.932 76.3242 139.74 76.3398 139.553 76.3693C138.896 77.6623 137.843 78.7182 136.554 79.377C136.524 79.5647 136.509 79.7573 136.509 79.954V80.4871C136.509 82.1976 135.126 83.5838 133.42 83.5838C131.714 83.5838 130.331 82.1976 130.331 80.4871ZM133.365 70.5013C134.766 70.5013 135.902 71.6403 135.902 73.0451C135.902 74.45 134.766 75.589 133.365 75.589C131.964 75.589 130.829 74.45 130.829 73.0451C130.829 71.6403 131.964 70.5013 133.365 70.5013Z" fill="#DEF6FF" fill-opacity="0.5"/>
<path fill-rule="evenodd" clip-rule="evenodd" d="M70.1713 138.995V138.463C70.1713 138.253 70.1539 138.048 70.1197 137.848C68.8681 137.189 67.8445 136.153 67.1995 134.891C66.9895 134.852 66.7729 134.832 66.5515 134.832H65.4553C63.7315 134.832 62.3335 133.431 62.3335 131.702C62.3335 129.973 63.7315 128.572 65.4553 128.572H66.5845C66.8203 128.572 67.0507 128.549 67.2739 128.505C67.9177 127.314 68.9029 126.335 70.0987 125.701C70.1461 125.466 70.1713 125.223 70.1713 124.975V124.476C70.1713 122.765 71.5543 121.378 73.2601 121.378C74.9659 121.378 76.3489 122.765 76.3489 124.476V124.975C76.3489 125.21 76.3711 125.439 76.4143 125.662C77.6473 126.297 78.6631 127.297 79.3201 128.519C79.5199 128.554 79.7257 128.572 79.9357 128.572H80.9983C82.7227 128.572 84.1201 129.973 84.1201 131.702C84.1201 133.431 82.7221 134.832 80.9983 134.832H79.9687C79.7731 134.832 79.5805 134.848 79.3933 134.878C78.7369 136.171 77.6833 137.227 76.3945 137.885C76.3645 138.074 76.3489 138.266 76.3489 138.463V138.995C76.3489 140.706 74.9659 142.093 73.2601 142.093C71.5543 142.093 70.1713 140.706 70.1713 138.995ZM73.2061 129.01C74.6071 129.01 75.7429 130.149 75.7429 131.554C75.7429 132.959 74.6071 134.098 73.2061 134.098C71.8051 134.098 70.6693 132.959 70.6693 131.554C70.6693 130.149 71.8051 129.01 73.2061 129.01Z" fill="#DEF6FF" fill-opacity="0.5"/>
<path fill-rule="evenodd" clip-rule="evenodd" d="M11.4613 80.4871V79.954C11.4613 79.7446 11.4436 79.5389 11.4096 79.3391C10.1577 78.6809 9.13415 77.6448 8.48951 76.3819C8.27921 76.344 8.06261 76.3242 7.84133 76.3242H6.74537C5.02122 76.3242 3.62354 74.9223 3.62354 73.1938C3.62354 71.4646 5.02122 70.0633 6.74537 70.0633H7.87451C8.11025 70.0633 8.34071 70.0404 8.56373 69.9965C9.20753 68.8052 10.193 67.8263 11.3883 67.1922C11.4362 66.9575 11.4613 66.7151 11.4613 66.4666V65.9666C11.4613 64.2561 12.8441 62.8699 14.5499 62.8699C16.2557 62.8699 17.6385 64.2561 17.6385 65.9666V66.4666C17.6385 66.7012 17.661 66.9311 17.7039 67.1531C18.9371 67.7884 19.953 68.7878 20.6098 70.0104C20.8098 70.0453 21.0155 70.0633 21.2253 70.0633H22.2881C24.0122 70.0633 25.4099 71.4646 25.4099 73.1938C25.4099 74.9223 24.0122 76.3242 22.2881 76.3242H21.2585C21.0627 76.3242 20.8704 76.3398 20.6831 76.3693C20.0264 77.6623 18.9731 78.7182 17.684 79.377C17.6541 79.5647 17.6385 79.7579 17.6385 79.954V80.4871C17.6385 82.1976 16.2557 83.5838 14.5499 83.5838C12.8441 83.5838 11.4613 82.1976 11.4613 80.4871ZM14.4956 70.5013C15.8966 70.5013 17.0324 71.6403 17.0324 73.0451C17.0324 74.45 15.8966 75.589 14.4956 75.589C13.0946 75.589 11.9589 74.45 11.9589 73.0451C11.9589 71.6403 13.0946 70.5013 14.4956 70.5013Z" fill="#DEF6FF" fill-opacity="0.5"/>
<path fill-rule="evenodd" clip-rule="evenodd" d="M70.1713 20.5244V19.9915C70.1713 19.782 70.1539 19.5766 70.1197 19.3768C68.8681 18.7183 67.8445 17.6823 67.1995 16.4195C66.9895 16.3815 66.7729 16.3615 66.5515 16.3615H65.4553C63.7315 16.3615 62.3335 14.96 62.3335 13.2311C62.3335 11.5022 63.7315 10.1006 65.4553 10.1006H66.5845C66.8203 10.1006 67.0507 10.0778 67.2739 10.0343C67.9177 8.84272 68.9029 7.86382 70.0987 7.22967C70.1461 6.99526 70.1713 6.75255 70.1713 6.50395V6.00438C70.1713 4.29387 71.5543 2.90723 73.2601 2.90723C74.9659 2.90723 76.3489 4.29387 76.3489 6.00438V6.50395C76.3489 6.7389 76.3711 6.96855 76.4143 7.19092C77.6473 7.82598 78.6631 8.82557 79.3201 10.0478C79.5199 10.0826 79.7257 10.1006 79.9357 10.1006H80.9983C82.7227 10.1006 84.1201 11.5022 84.1201 13.2311C84.1201 14.96 82.7221 16.3615 80.9983 16.3615H79.9687C79.7731 16.3615 79.5805 16.3771 79.3933 16.4071C78.7369 17.6998 77.6833 18.756 76.3945 19.4145C76.3645 19.6024 76.3489 19.7952 76.3489 19.9915V20.5244C76.3489 22.2349 74.9659 23.6215 73.2601 23.6215C71.5543 23.6215 70.1713 22.2349 70.1713 20.5244ZM73.2061 10.5391C74.6071 10.5391 75.7429 11.678 75.7429 13.0829C75.7429 14.4877 74.6071 15.6266 73.2061 15.6266C71.8051 15.6266 70.6693 14.4877 70.6693 13.0829C70.6693 11.678 71.8051 10.5391 73.2061 10.5391Z" fill="#DEF6FF" fill-opacity="0.5"/>
</svg>
